0
SECTION
2
HEADER
9
$INSUNITS
70
4
9
$ACADVER
1
AC1014
9
$HANDSEED
5
FFFF
0
ENDSEC
0
SECTION
2
TABLES
0
TABLE
2
VPORT
5
8
100
AcDbSymbolTable
0
ENDTAB
0
TABLE
2
LTYPE
5
5
100
AcDbSymbolTable
0
LTYPE
5
14
100
AcDbSymbolTableRecord
100
AcDbLinetypeTableRecord
2
BYBLOCK
70
0
0
LTYPE
5
15
100
AcDbSymbolTableRecord
100
AcDbLinetypeTableRecord
2
BYLAYER
70
0
0
ENDTAB
0
TABLE
2
LAYER
5
2
100
AcDbSymbolTable
70
2
0
LAYER
5
50
100
AcDbSymbolTableRecord
100
AcDbLayerTableRecord
2
0
70
0
6
CONTINUOUS
0
ENDTAB
0
TABLE
2
STYLE
5
3
100
AcDbSymbolTable
70
1
0
STYLE
5
11
100
AcDbSymbolTableRecord
100
AcDbTextStyleTableRecord
2
STANDARD
70
0
0
ENDTAB
0
TABLE
2
VIEW
5
6
100
AcDbSymbolTable
70
0
0
ENDTAB
0
TABLE
2
UCS
5
7
100
AcDbSymbolTable
70
0
0
ENDTAB
0
TABLE
2
APPID
5
9
100
AcDbSymbolTable
70
2
0
APPID
5
12
100
AcDbSymbolTableRecord
100
AcDbRegAppTableRecord
2
ACAD
70
0
0
ENDTAB
0
TABLE
2
DIMSTYLE
5
A
100
AcDbSymbolTable
70
1
0
ENDTAB
0
TABLE
2
BLOCK_RECORD
5
1
100
AcDbSymbolTable
70
1
0
BLOCK_RECORD
5
1F
100
AcDbSymbolTableRecord
100
AcDbBlockTableRecord
2
*MODEL_SPACE
0
BLOCK_RECORD
5
1B
100
AcDbSymbolTableRecord
100
AcDbBlockTableRecord
2
*PAPER_SPACE
0
ENDTAB
0
ENDSEC
0
SECTION
2
BLOCKS
0
BLOCK
5
20
100
AcDbEntity
100
AcDbBlockBegin
2
*MODEL_SPACE
0
ENDBLK
5
21
100
AcDbEntity
100
AcDbBlockEnd
0
BLOCK
5
1C
100
AcDbEntity
100
AcDbBlockBegin
2
*PAPER_SPACE
0
ENDBLK
5
1D
100
AcDbEntity
100
AcDbBlockEnd
0
ENDSEC
0
SECTION
2
ENTITIES
0
LWPOLYLINE
5
100
100
AcDbEntity
8
0
100
AcDbPolyline
90
4
70
1
43
0.0
10
77.40520837061095
20
-30.213163299468913
10
77.40520837061095
20
-33.013163299468914
10
81.905208370610936
20
-33.013163299468907
10
81.905208370610936
20
-30.213163299468913
0
LWPOLYLINE
5
101
100
AcDbEntity
8
0
100
AcDbPolyline
90
4
70
1
43
0.0
10
-14.261458296055732
20
-30.213163299468913
10
-14.261458296055721
20
-33.013163299468914
10
-9.7614582960557286
20
-33.013163299468907
10
-9.7614582960557286
20
-30.213163299468913
0
LWPOLYLINE
5
102
100
AcDbEntity
8
0
100
AcDbPolyline
90
4
70
1
43
0.0
10
8.5718750372776036
20
22.986836700531089
10
8.5718750372776036
20
25.786836700531083
10
4.0718750372776071
20
25.786836700531094
10
4.0718750372776027
20
22.986836700531089
0
LWPOLYLINE
5
103
100
AcDbEntity
8
0
100
AcDbPolyline
90
4
70
1
43
0.0
10
45.238541703944279
20
22.986836700531089
10
45.238541703944279
20
25.786836700531083
10
40.738541703944271
20
25.786836700531094
10
40.738541703944271
20
22.986836700531089
0
LWPOLYLINE
5
104
100
AcDbEntity
8
0
100
AcDbPolyline
90
4
70
1
43
0.0
10
-9.7614582960557286
20
22.986836700531089
10
-9.7614582960557286
20
25.786836700531083
10
-14.261458296055727
20
25.786836700531094
10
-14.261458296055732
20
22.986836700531089
0
LWPOLYLINE
5
105
100
AcDbEntity
8
0
100
AcDbPolyline
90
4
70
1
43
0.0
10
4.0718750372776027
20
-30.213163299468913
10
4.0718750372776116
20
-33.013163299468914
10
8.5718750372776036
20
-33.013163299468907
10
8.5718750372776036
20
-30.213163299468913
0
LWPOLYLINE
5
106
100
AcDbEntity
8
0
100
AcDbPolyline
90
4
70
1
43
0.0
10
26.905208370610936
20
-30.213163299468913
10
22.405208370610936
20
-30.213163299468913
10
22.405208370610943
20
-33.013163299468914
10
26.905208370610936
20
-33.013163299468907
0
LWPOLYLINE
5
107
100
AcDbEntity
8
0
100
AcDbPolyline
90
4
70
1
43
0.0
10
59.071875037277607
20
-30.213163299468913
10
59.071875037277614
20
-33.013163299468914
10
63.571875037277607
20
-33.013163299468907
10
63.571875037277607
20
-30.213163299468913
0
LWPOLYLINE
5
108
100
AcDbEntity
8
0
100
AcDbPolyline
90
4
70
1
43
0.0
10
-32.594791629389064
20
-30.213163299468913
10
-32.594791629389057
20
-33.013163299468914
10
-28.094791629389064
20
-33.013163299468907
10
-28.094791629389064
20
-30.213163299468913
0
LWPOLYLINE
5
109
100
AcDbEntity
8
0
100
AcDbPolyline
90
4
70
1
43
0.0
10
81.905208370610936
20
22.986836700531089
10
81.905208370610936
20
25.786836700531083
10
77.405208370610936
20
25.786836700531094
10
77.40520837061095
20
22.986836700531089
0
LWPOLYLINE
5
110
100
AcDbEntity
8
0
100
AcDbPolyline
90
4
70
1
43
0.0
10
63.571875037277607
20
22.986836700531089
10
63.571875037277607
20
25.786836700531083
10
59.071875037277607
20
25.786836700531094
10
59.071875037277607
20
22.986836700531089
0
LWPOLYLINE
5
111
100
AcDbEntity
8
0
100
AcDbPolyline
90
4
70
1
43
0.0
10
-28.094791629389064
20
22.986836700531089
10
-28.094791629389064
20
25.786836700531083
10
-32.594791629389064
20
25.786836700531094
10
-32.594791629389064
20
22.986836700531089
0
LWPOLYLINE
5
112
100
AcDbEntity
8
0
100
AcDbPolyline
90
4
70
1
43
0.0
10
40.738541703944271
20
-30.213163299468913
10
40.738541703944279
20
-33.013163299468914
10
45.238541703944279
20
-33.013163299468907
10
45.238541703944279
20
-30.213163299468913
0
LWPOLYLINE
5
113
100
AcDbEntity
8
0
100
AcDbPolyline
90
4
70
1
43
0.0
10
26.905208370610936
20
22.986836700531089
10
26.905208370610936
20
25.786836700531083
10
22.405208370610939
20
25.786836700531094
10
22.405208370610936
20
22.986836700531089
0
CIRCLE
5
114
100
AcDbEntity
8
0
100
AcDbCircle
10
-40.544791629389053
20
22.78683670053109
30
0
40
2.0000000000000018
0
CIRCLE
5
115
100
AcDbEntity
8
0
100
AcDbCircle
10
89.855208370610939
20
22.78683670053109
30
0
40
1.9999999999999929
0
CIRCLE
5
116
100
AcDbEntity
8
0
100
AcDbCircle
10
83.455208370610947
20
-6.4131632994689109
30
0
40
2.3750000000000071
0
CIRCLE
5
117
100
AcDbEntity
8
0
100
AcDbCircle
10
83.455208370610947
20
-23.213163299468917
30
0
40
2.3750000000000071
0
CIRCLE
5
118
100
AcDbEntity
8
0
100
AcDbCircle
10
77.855208370610967
20
-23.213163299468917
30
0
40
2.3750000000000071
0
CIRCLE
5
119
100
AcDbEntity
8
0
100
AcDbCircle
10
66.65520837061095
20
-23.213163299468917
30
0
40
2.3749999999999982
0
CIRCLE
5
120
100
AcDbEntity
8
0
100
AcDbCircle
10
44.255208370610944
20
-17.613163299468912
30
0
40
2.3749999999999982
0
CIRCLE
5
121
100
AcDbEntity
8
0
100
AcDbCircle
10
49.855208370610953
20
-17.613163299468912
30
0
40
2.3749999999999982
0
CIRCLE
5
122
100
AcDbEntity
8
0
100
AcDbCircle
10
72.255208370610958
20
-0.81316329946891086
30
0
40
2.3749999999999982
0
CIRCLE
5
123
100
AcDbEntity
8
0
100
AcDbCircle
10
61.055208370610963
20
-0.81316329946891086
30
0
40
2.3749999999999982
0
CIRCLE
5
124
100
AcDbEntity
8
0
100
AcDbCircle
10
49.855208370610953
20
-0.81316329946891086
30
0
40
2.3749999999999982
0
CIRCLE
5
125
100
AcDbEntity
8
0
100
AcDbCircle
10
66.65520837061095
20
10.38683670053109
30
0
40
2.3749999999999982
0
CIRCLE
5
126
100
AcDbEntity
8
0
100
AcDbCircle
10
49.855208370610953
20
15.986836700531091
30
0
40
2.3749999999999982
0
CIRCLE
5
127
100
AcDbEntity
8
0
100
AcDbCircle
10
44.255208370610944
20
-0.81316329946891086
30
0
40
2.3749999999999982
0
CIRCLE
5
128
100
AcDbEntity
8
0
100
AcDbCircle
10
38.65520837061095
20
10.38683670053109
30
0
40
2.3749999999999982
0
CIRCLE
5
129
100
AcDbEntity
8
0
100
AcDbCircle
10
77.855208370610967
20
15.986836700531091
30
0
40
2.3750000000000071
0
CIRCLE
5
130
100
AcDbEntity
8
0
100
AcDbCircle
10
89.055208370610956
20
15.986836700531091
30
0
40
2.3750000000000071
0
CIRCLE
5
131
100
AcDbEntity
8
0
100
AcDbCircle
10
27.455208370610951
20
-17.613163299468912
30
0
40
2.3749999999999982
0
CIRCLE
5
132
100
AcDbEntity
8
0
100
AcDbCircle
10
27.455208370610951
20
-6.4131632994689109
30
0
40
2.3749999999999982
0
CIRCLE
5
133
100
AcDbEntity
8
0
100
AcDbCircle
10
27.455208370610951
20
10.38683670053109
30
0
40
2.3749999999999982
0
CIRCLE
5
134
100
AcDbEntity
8
0
100
AcDbCircle
10
-39.744791629389056
20
-17.613163299468912
30
0
40
2.3749999999999982
0
CIRCLE
5
135
100
AcDbEntity
8
0
100
AcDbCircle
10
-39.744791629389056
20
-0.81316329946891086
30
0
40
2.3749999999999982
0
CIRCLE
5
136
100
AcDbEntity
8
0
100
AcDbCircle
10
-34.144791629389054
20
-6.4131632994689109
30
0
40
2.3749999999999982
0
CIRCLE
5
137
100
AcDbEntity
8
0
100
AcDbCircle
10
-11.744791629389052
20
-17.613163299468912
30
0
40
2.375
0
CIRCLE
5
138
100
AcDbEntity
8
0
100
AcDbCircle
10
-6.1447916293890525
20
10.38683670053109
30
0
40
2.375
0
CIRCLE
5
139
100
AcDbEntity
8
0
100
AcDbCircle
10
-28.544791629389053
20
10.38683670053109
30
0
40
2.3749999999999982
0
CIRCLE
5
140
100
AcDbEntity
8
0
100
AcDbCircle
10
-34.144791629389054
20
15.986836700531091
30
0
40
2.3749999999999982
0
CIRCLE
5
141
100
AcDbEntity
8
0
100
AcDbCircle
10
-11.744791629389052
20
15.986836700531091
30
0
40
2.375
0
CIRCLE
5
142
100
AcDbEntity
8
0
100
AcDbCircle
10
5.0552083706109485
20
10.38683670053109
30
0
40
2.375
0
CIRCLE
5
143
100
AcDbEntity
8
0
100
AcDbCircle
10
10.655208370610953
20
10.38683670053109
30
0
40
2.375
0
CIRCLE
5
144
100
AcDbEntity
8
0
100
AcDbCircle
10
5.0552083706109485
20
-12.013163299468912
30
0
40
2.375
0
CIRCLE
5
145
100
AcDbEntity
8
0
100
AcDbCircle
10
10.655208370610953
20
-17.613163299468912
30
0
40
2.375
0
CIRCLE
5
146
100
AcDbEntity
8
0
100
AcDbCircle
10
-17.344791629389054
20
-23.213163299468917
30
0
40
2.375
0
CIRCLE
5
147
100
AcDbEntity
8
0
100
AcDbCircle
10
-39.744791629389056
20
-23.213163299468917
30
0
40
2.3749999999999982
0
CIRCLE
5
148
100
AcDbEntity
8
0
100
AcDbCircle
10
-22.944791629389055
20
-23.213163299468917
30
0
40
2.3749999999999982
0
CIRCLE
5
149
100
AcDbEntity
8
0
100
AcDbCircle
10
-0.54479162938905201
20
-23.213163299468917
30
0
40
2.375
0
CIRCLE
5
150
100
AcDbEntity
8
0
100
AcDbCircle
10
5.0552083706109485
20
-6.4131632994689109
30
0
40
2.375
0
CIRCLE
5
151
100
AcDbEntity
8
0
100
AcDbCircle
10
10.655208370610953
20
4.7868367005310901
30
0
40
2.375
0
CIRCLE
5
152
100
AcDbEntity
8
0
100
AcDbCircle
10
5.0552083706109485
20
4.7868367005310901
30
0
40
2.375
0
CIRCLE
5
153
100
AcDbEntity
8
0
100
AcDbCircle
10
-6.1447916293890525
20
15.986836700531091
30
0
40
2.375
0
CIRCLE
5
154
100
AcDbEntity
8
0
100
AcDbCircle
10
-28.544791629389053
20
15.986836700531091
30
0
40
2.3749999999999982
0
CIRCLE
5
155
100
AcDbEntity
8
0
100
AcDbCircle
10
-34.144791629389054
20
10.38683670053109
30
0
40
2.3749999999999982
0
CIRCLE
5
156
100
AcDbEntity
8
0
100
AcDbCircle
10
-11.744791629389052
20
10.38683670053109
30
0
40
2.375
0
CIRCLE
5
157
100
AcDbEntity
8
0
100
AcDbCircle
10
-6.1447916293890525
20
-17.613163299468912
30
0
40
2.375
0
CIRCLE
5
158
100
AcDbEntity
8
0
100
AcDbCircle
10
-34.144791629389054
20
-12.013163299468912
30
0
40
2.3749999999999982
0
CIRCLE
5
159
100
AcDbEntity
8
0
100
AcDbCircle
10
-39.744791629389056
20
4.7868367005310901
30
0
40
2.3749999999999982
0
CIRCLE
5
160
100
AcDbEntity
8
0
100
AcDbCircle
10
-28.544791629389053
20
-17.613163299468912
30
0
40
2.3749999999999982
0
CIRCLE
5
161
100
AcDbEntity
8
0
100
AcDbCircle
10
27.455208370610951
20
15.986836700531091
30
0
40
2.3749999999999982
0
CIRCLE
5
162
100
AcDbEntity
8
0
100
AcDbCircle
10
27.455208370610951
20
-0.81316329946891086
30
0
40
2.3749999999999982
0
CIRCLE
5
163
100
AcDbEntity
8
0
100
AcDbCircle
10
27.455208370610951
20
-12.013163299468912
30
0
40
2.3749999999999982
0
CIRCLE
5
164
100
AcDbEntity
8
0
100
AcDbCircle
10
27.455208370610951
20
-23.213163299468917
30
0
40
2.3749999999999982
0
CIRCLE
5
165
100
AcDbEntity
8
0
100
AcDbCircle
10
83.455208370610947
20
15.986836700531091
30
0
40
2.3750000000000071
0
CIRCLE
5
166
100
AcDbEntity
8
0
100
AcDbCircle
10
72.255208370610958
20
15.986836700531091
30
0
40
2.3749999999999982
0
CIRCLE
5
167
100
AcDbEntity
8
0
100
AcDbCircle
10
44.255208370610944
20
-6.4131632994689109
30
0
40
2.3749999999999982
0
CIRCLE
5
168
100
AcDbEntity
8
0
100
AcDbCircle
10
44.255208370610944
20
15.986836700531091
30
0
40
2.3749999999999982
0
CIRCLE
5
169
100
AcDbEntity
8
0
100
AcDbCircle
10
66.65520837061095
20
15.986836700531091
30
0
40
2.3749999999999982
0
CIRCLE
5
170
100
AcDbEntity
8
0
100
AcDbCircle
10
49.855208370610953
20
10.38683670053109
30
0
40
2.3749999999999982
0
CIRCLE
5
171
100
AcDbEntity
8
0
100
AcDbCircle
10
55.455208370610961
20
-0.81316329946891086
30
0
40
2.3749999999999982
0
CIRCLE
5
172
100
AcDbEntity
8
0
100
AcDbCircle
10
72.255208370610958
20
-6.4131632994689109
30
0
40
2.3749999999999982
0
CIRCLE
5
173
100
AcDbEntity
8
0
100
AcDbCircle
10
38.65520837061095
20
-23.213163299468917
30
0
40
2.3749999999999982
0
CIRCLE
5
174
100
AcDbEntity
8
0
100
AcDbCircle
10
55.455208370610961
20
-17.613163299468912
30
0
40
2.3749999999999982
0
CIRCLE
5
175
100
AcDbEntity
8
0
100
AcDbCircle
10
61.055208370610963
20
-23.213163299468917
30
0
40
2.3749999999999982
0
CIRCLE
5
176
100
AcDbEntity
8
0
100
AcDbCircle
10
72.255208370610958
20
-23.213163299468917
30
0
40
2.3749999999999982
0
CIRCLE
5
177
100
AcDbEntity
8
0
100
AcDbCircle
10
89.055208370610956
20
-17.613163299468912
30
0
40
2.3750000000000071
0
CIRCLE
5
178
100
AcDbEntity
8
0
100
AcDbCircle
10
77.855208370610967
20
-0.81316329946891086
30
0
40
2.3750000000000071
0
CIRCLE
5
179
100
AcDbEntity
8
0
100
AcDbCircle
10
83.455208370610947
20
-12.013163299468912
30
0
40
2.3750000000000071
0
CIRCLE
5
180
100
AcDbEntity
8
0
100
AcDbCircle
10
83.455208370610947
20
-17.613163299468912
30
0
40
2.3750000000000071
0
CIRCLE
5
181
100
AcDbEntity
8
0
100
AcDbCircle
10
77.855208370610967
20
-17.613163299468912
30
0
40
2.3750000000000071
0
CIRCLE
5
182
100
AcDbEntity
8
0
100
AcDbCircle
10
66.65520837061095
20
-17.613163299468912
30
0
40
2.3749999999999982
0
CIRCLE
5
183
100
AcDbEntity
8
0
100
AcDbCircle
10
44.255208370610944
20
-23.213163299468917
30
0
40
2.3749999999999982
0
CIRCLE
5
184
100
AcDbEntity
8
0
100
AcDbCircle
10
49.855208370610953
20
-23.213163299468917
30
0
40
2.3749999999999982
0
CIRCLE
5
185
100
AcDbEntity
8
0
100
AcDbCircle
10
66.65520837061095
20
-0.81316329946891086
30
0
40
2.3749999999999982
0
CIRCLE
5
186
100
AcDbEntity
8
0
100
AcDbCircle
10
61.055208370610963
20
-6.4131632994689109
30
0
40
2.3749999999999982
0
CIRCLE
5
187
100
AcDbEntity
8
0
100
AcDbCircle
10
49.855208370610953
20
-6.4131632994689109
30
0
40
2.3749999999999982
0
CIRCLE
5
188
100
AcDbEntity
8
0
100
AcDbCircle
10
61.055208370610963
20
10.38683670053109
30
0
40
2.3749999999999982
0
CIRCLE
5
189
100
AcDbEntity
8
0
100
AcDbCircle
10
55.455208370610961
20
15.986836700531091
30
0
40
2.3749999999999982
0
CIRCLE
5
190
100
AcDbEntity
8
0
100
AcDbCircle
10
44.255208370610944
20
4.7868367005310901
30
0
40
2.3749999999999982
0
CIRCLE
5
191
100
AcDbEntity
8
0
100
AcDbCircle
10
38.65520837061095
20
4.7868367005310901
30
0
40
2.3749999999999982
0
CIRCLE
5
192
100
AcDbEntity
8
0
100
AcDbCircle
10
77.855208370610967
20
10.38683670053109
30
0
40
2.3750000000000071
0
CIRCLE
5
193
100
AcDbEntity
8
0
100
AcDbCircle
10
89.055208370610956
20
10.38683670053109
30
0
40
2.3750000000000071
0
CIRCLE
5
194
100
AcDbEntity
8
0
100
AcDbCircle
10
21.855208370610946
20
-17.613163299468912
30
0
40
2.3749999999999982
0
CIRCLE
5
195
100
AcDbEntity
8
0
100
AcDbCircle
10
21.855208370610946
20
-6.4131632994689109
30
0
40
2.3749999999999982
0
CIRCLE
5
196
100
AcDbEntity
8
0
100
AcDbCircle
10
21.855208370610946
20
10.38683670053109
30
0
40
2.3749999999999982
0
CIRCLE
5
197
100
AcDbEntity
8
0
100
AcDbCircle
10
-34.144791629389054
20
-17.613163299468912
30
0
40
2.3749999999999982
0
CIRCLE
5
198
100
AcDbEntity
8
0
100
AcDbCircle
10
-39.744791629389056
20
-6.4131632994689109
30
0
40
2.3749999999999982
0
CIRCLE
5
199
100
AcDbEntity
8
0
100
AcDbCircle
10
-34.144791629389054
20
-0.81316329946891086
30
0
40
2.3749999999999982
0
CIRCLE
5
200
100
AcDbEntity
8
0
100
AcDbCircle
10
-17.344791629389054
20
-17.613163299468912
30
0
40
2.375
0
CIRCLE
5
201
100
AcDbEntity
8
0
100
AcDbCircle
10
-0.54479162938905201
20
10.38683670053109
30
0
40
2.375
0
CIRCLE
5
202
100
AcDbEntity
8
0
100
AcDbCircle
10
-22.944791629389055
20
10.38683670053109
30
0
40
2.3749999999999982
0
CIRCLE
5
203
100
AcDbEntity
8
0
100
AcDbCircle
10
-39.744791629389056
20
15.986836700531091
30
0
40
2.3749999999999982
0
CIRCLE
5
204
100
AcDbEntity
8
0
100
AcDbCircle
10
-17.344791629389054
20
15.986836700531091
30
0
40
2.375
0
CIRCLE
5
205
100
AcDbEntity
8
0
100
AcDbCircle
10
5.0552083706109485
20
15.986836700531091
30
0
40
2.375
0
CIRCLE
5
206
100
AcDbEntity
8
0
100
AcDbCircle
10
10.655208370610953
20
-0.81316329946891086
30
0
40
2.375
0
CIRCLE
5
207
100
AcDbEntity
8
0
100
AcDbCircle
10
5.0552083706109485
20
-17.613163299468912
30
0
40
2.375
0
CIRCLE
5
208
100
AcDbEntity
8
0
100
AcDbCircle
10
10.655208370610953
20
-12.013163299468912
30
0
40
2.375
0
CIRCLE
5
209
100
AcDbEntity
8
0
100
AcDbCircle
10
-11.744791629389052
20
-23.213163299468917
30
0
40
2.375
0
CIRCLE
5
210
100
AcDbEntity
8
0
100
AcDbCircle
10
-34.144791629389054
20
-23.213163299468917
30
0
40
2.3749999999999982
0
CIRCLE
5
211
100
AcDbEntity
8
0
100
AcDbCircle
10
-28.544791629389053
20
-23.213163299468917
30
0
40
2.3749999999999982
0
CIRCLE
5
212
100
AcDbEntity
8
0
100
AcDbCircle
10
-6.1447916293890525
20
-23.213163299468917
30
0
40
2.375
0
CIRCLE
5
213
100
AcDbEntity
8
0
100
AcDbCircle
10
10.655208370610953
20
-6.4131632994689109
30
0
40
2.375
0
CIRCLE
5
214
100
AcDbEntity
8
0
100
AcDbCircle
10
5.0552083706109485
20
-23.213163299468917
30
0
40
2.375
0
CIRCLE
5
215
100
AcDbEntity
8
0
100
AcDbCircle
10
5.0552083706109485
20
-0.81316329946891086
30
0
40
2.375
0
CIRCLE
5
216
100
AcDbEntity
8
0
100
AcDbCircle
10
-0.54479162938905201
20
15.986836700531091
30
0
40
2.375
0
CIRCLE
5
217
100
AcDbEntity
8
0
100
AcDbCircle
10
-22.944791629389055
20
15.986836700531091
30
0
40
2.3749999999999982
0
CIRCLE
5
218
100
AcDbEntity
8
0
100
AcDbCircle
10
-39.744791629389056
20
10.38683670053109
30
0
40
2.3749999999999982
0
CIRCLE
5
219
100
AcDbEntity
8
0
100
AcDbCircle
10
-17.344791629389054
20
10.38683670053109
30
0
40
2.375
0
CIRCLE
5
220
100
AcDbEntity
8
0
100
AcDbCircle
10
-0.54479162938905201
20
-17.613163299468912
30
0
40
2.375
0
CIRCLE
5
221
100
AcDbEntity
8
0
100
AcDbCircle
10
-22.944791629389055
20
-17.613163299468912
30
0
40
2.3749999999999982
0
CIRCLE
5
222
100
AcDbEntity
8
0
100
AcDbCircle
10
-34.144791629389054
20
4.7868367005310901
30
0
40
2.3749999999999982
0
CIRCLE
5
223
100
AcDbEntity
8
0
100
AcDbCircle
10
-39.744791629389056
20
-12.013163299468912
30
0
40
2.3749999999999982
0
CIRCLE
5
224
100
AcDbEntity
8
0
100
AcDbCircle
10
21.855208370610946
20
15.986836700531091
30
0
40
2.3749999999999982
0
CIRCLE
5
225
100
AcDbEntity
8
0
100
AcDbCircle
10
21.855208370610946
20
-0.81316329946891086
30
0
40
2.3749999999999982
0
CIRCLE
5
226
100
AcDbEntity
8
0
100
AcDbCircle
10
21.855208370610946
20
-12.013163299468912
30
0
40
2.3749999999999982
0
CIRCLE
5
227
100
AcDbEntity
8
0
100
AcDbCircle
10
21.855208370610946
20
-23.213163299468917
30
0
40
2.3749999999999982
0
CIRCLE
5
228
100
AcDbEntity
8
0
100
AcDbCircle
10
83.455208370610947
20
10.38683670053109
30
0
40
2.3750000000000071
0
CIRCLE
5
229
100
AcDbEntity
8
0
100
AcDbCircle
10
72.255208370610958
20
10.38683670053109
30
0
40
2.3749999999999982
0
CIRCLE
5
230
100
AcDbEntity
8
0
100
AcDbCircle
10
38.65520837061095
20
-0.81316329946891086
30
0
40
2.3749999999999982
0
CIRCLE
5
231
100
AcDbEntity
8
0
100
AcDbCircle
10
44.255208370610944
20
10.38683670053109
30
0
40
2.3749999999999982
0
CIRCLE
5
232
100
AcDbEntity
8
0
100
AcDbCircle
10
61.055208370610963
20
15.986836700531091
30
0
40
2.3749999999999982
0
CIRCLE
5
233
100
AcDbEntity
8
0
100
AcDbCircle
10
55.455208370610961
20
10.38683670053109
30
0
40
2.3749999999999982
0
CIRCLE
5
234
100
AcDbEntity
8
0
100
AcDbCircle
10
55.455208370610961
20
-6.4131632994689109
30
0
40
2.3749999999999982
0
CIRCLE
5
235
100
AcDbEntity
8
0
100
AcDbCircle
10
66.65520837061095
20
-6.4131632994689109
30
0
40
2.3749999999999982
0
CIRCLE
5
236
100
AcDbEntity
8
0
100
AcDbCircle
10
38.65520837061095
20
-17.613163299468912
30
0
40
2.3749999999999982
0
CIRCLE
5
237
100
AcDbEntity
8
0
100
AcDbCircle
10
55.455208370610961
20
-23.213163299468917
30
0
40
2.3749999999999982
0
CIRCLE
5
238
100
AcDbEntity
8
0
100
AcDbCircle
10
61.055208370610963
20
-17.613163299468912
30
0
40
2.3749999999999982
0
CIRCLE
5
239
100
AcDbEntity
8
0
100
AcDbCircle
10
72.255208370610958
20
-17.613163299468912
30
0
40
2.3749999999999982
0
CIRCLE
5
240
100
AcDbEntity
8
0
100
AcDbCircle
10
89.055208370610956
20
-6.4131632994689109
30
0
40
2.3750000000000071
0
CIRCLE
5
241
100
AcDbEntity
8
0
100
AcDbCircle
10
77.855208370610967
20
-6.4131632994689109
30
0
40
2.3750000000000071
0
CIRCLE
5
242
100
AcDbEntity
8
0
100
AcDbCircle
10
89.055208370610956
20
-12.013163299468912
30
0
40
2.3750000000000071
0
LWPOLYLINE
5
243
100
AcDbEntity
8
0
100
AcDbPolyline
90
4
70
1
43
0.0
10
94.855208370610939
20
-35.013163299468914
10
-45.544791629389053
20
-35.013163299468914
10
-45.544791629389053
20
27.78683670053109
10
94.855208370610939
20
27.78683670053109
0
ENDSEC
0
SECTION
2
OBJECTS
0
DICTIONARY
5
C
100
AcDbDictionary
3
ACAD_GROUP
350
D
3
ACAD_MLINESTYLE
350
17
0
DICTIONARY
5
D
100
AcDbDictionary
0
DICTIONARY
5
1A
330
C
100
AcDbDictionary
0
DICTIONARY
5
17
100
AcDbDictionary
0
ENDSEC
0
EOF
