0
SECTION
2
HEADER
9
$INSUNITS
70
4
9
$ACADVER
1
AC1014
9
$HANDSEED
5
FFFF
0
ENDSEC
0
SECTION
2
TABLES
0
TABLE
2
VPORT
5
8
100
AcDbSymbolTable
0
ENDTAB
0
TABLE
2
LTYPE
5
5
100
AcDbSymbolTable
0
LTYPE
5
14
100
AcDbSymbolTableRecord
100
AcDbLinetypeTableRecord
2
BYBLOCK
70
0
0
LTYPE
5
15
100
AcDbSymbolTableRecord
100
AcDbLinetypeTableRecord
2
BYLAYER
70
0
0
ENDTAB
0
TABLE
2
LAYER
5
2
100
AcDbSymbolTable
70
2
0
LAYER
5
50
100
AcDbSymbolTableRecord
100
AcDbLayerTableRecord
2
0
70
0
6
CONTINUOUS
0
ENDTAB
0
TABLE
2
STYLE
5
3
100
AcDbSymbolTable
70
1
0
STYLE
5
11
100
AcDbSymbolTableRecord
100
AcDbTextStyleTableRecord
2
STANDARD
70
0
0
ENDTAB
0
TABLE
2
VIEW
5
6
100
AcDbSymbolTable
70
0
0
ENDTAB
0
TABLE
2
UCS
5
7
100
AcDbSymbolTable
70
0
0
ENDTAB
0
TABLE
2
APPID
5
9
100
AcDbSymbolTable
70
2
0
APPID
5
12
100
AcDbSymbolTableRecord
100
AcDbRegAppTableRecord
2
ACAD
70
0
0
ENDTAB
0
TABLE
2
DIMSTYLE
5
A
100
AcDbSymbolTable
70
1
0
ENDTAB
0
TABLE
2
BLOCK_RECORD
5
1
100
AcDbSymbolTable
70
1
0
BLOCK_RECORD
5
1F
100
AcDbSymbolTableRecord
100
AcDbBlockTableRecord
2
*MODEL_SPACE
0
BLOCK_RECORD
5
1B
100
AcDbSymbolTableRecord
100
AcDbBlockTableRecord
2
*PAPER_SPACE
0
ENDTAB
0
ENDSEC
0
SECTION
2
BLOCKS
0
BLOCK
5
20
100
AcDbEntity
100
AcDbBlockBegin
2
*MODEL_SPACE
0
ENDBLK
5
21
100
AcDbEntity
100
AcDbBlockEnd
0
BLOCK
5
1C
100
AcDbEntity
100
AcDbBlockBegin
2
*PAPER_SPACE
0
ENDBLK
5
1D
100
AcDbEntity
100
AcDbBlockEnd
0
ENDSEC
0
SECTION
2
ENTITIES
0
LWPOLYLINE
5
100
100
AcDbEntity
8
0
100
AcDbPolyline
90
4
70
1
43
0.0
10
61.099999999999994
20
64
10
61.099999999999994
20
2.9999999999999987
42
0.99999999999999989
10
62.099999999999994
20
2.9999999999999982
10
62.099999999999994
20
64
42
0.99999999999999989
0
LWPOLYLINE
5
101
100
AcDbEntity
8
0
100
AcDbPolyline
90
4
70
1
43
0.0
10
77.899999999999991
20
64
10
77.899999999999991
20
2.9999999999999987
42
0.99999999999999989
10
78.899999999999991
20
2.9999999999999982
10
78.899999999999991
20
64
42
0.99999999999999989
0
CIRCLE
5
102
100
AcDbEntity
8
0
100
AcDbCircle
10
106.39999999999999
20
30.699999999999999
30
0
40
2.6999999999999957
0
CIRCLE
5
103
100
AcDbEntity
8
0
100
AcDbCircle
10
95.199999999999989
20
36.299999999999997
30
0
40
2.6999999999999957
0
CIRCLE
5
104
100
AcDbEntity
8
0
100
AcDbCircle
10
123.19999999999999
20
30.699999999999999
30
0
40
2.6999999999999957
0
CIRCLE
5
105
100
AcDbEntity
8
0
100
AcDbCircle
10
100.79999999999998
20
19.499999999999996
30
0
40
2.6999999999999957
0
CIRCLE
5
106
100
AcDbEntity
8
0
100
AcDbCircle
10
128.79999999999998
20
19.499999999999996
30
0
40
2.6999999999999957
0
CIRCLE
5
107
100
AcDbEntity
8
0
100
AcDbCircle
10
128.79999999999998
20
41.899999999999991
30
0
40
2.6999999999999957
0
CIRCLE
5
108
100
AcDbEntity
8
0
100
AcDbCircle
10
112
20
53.100000000000009
30
0
40
2.6999999999999957
0
CIRCLE
5
109
100
AcDbEntity
8
0
100
AcDbCircle
10
89.599999999999994
20
53.100000000000009
30
0
40
2.6999999999999957
0
CIRCLE
5
110
100
AcDbEntity
8
0
100
AcDbCircle
10
89.599999999999994
20
25.099999999999998
30
0
40
2.6999999999999957
0
CIRCLE
5
111
100
AcDbEntity
8
0
100
AcDbCircle
10
83.999999999999986
20
36.299999999999997
30
0
40
2.6999999999999957
0
CIRCLE
5
112
100
AcDbEntity
8
0
100
AcDbCircle
10
95.199999999999989
20
13.899999999999997
30
0
40
2.6999999999999957
0
CIRCLE
5
113
100
AcDbEntity
8
0
100
AcDbCircle
10
117.59999999999998
20
13.899999999999997
30
0
40
2.6999999999999957
0
CIRCLE
5
114
100
AcDbEntity
8
0
100
AcDbCircle
10
134.39999999999998
20
25.099999999999998
30
0
40
2.6999999999999957
0
CIRCLE
5
115
100
AcDbEntity
8
0
100
AcDbCircle
10
134.39999999999998
20
47.5
30
0
40
2.6999999999999957
0
CIRCLE
5
116
100
AcDbEntity
8
0
100
AcDbCircle
10
112
20
47.5
30
0
40
2.6999999999999957
0
CIRCLE
5
117
100
AcDbEntity
8
0
100
AcDbCircle
10
89.599999999999994
20
47.5
30
0
40
2.6999999999999957
0
CIRCLE
5
118
100
AcDbEntity
8
0
100
AcDbCircle
10
72.799999999999997
20
13.899999999999997
30
0
40
2.6999999999999957
0
CIRCLE
5
119
100
AcDbEntity
8
0
100
AcDbCircle
10
67.199999999999989
20
30.699999999999999
30
0
40
2.6999999999999957
0
CIRCLE
5
120
100
AcDbEntity
8
0
100
AcDbCircle
10
67.199999999999989
20
41.899999999999991
30
0
40
2.6999999999999957
0
CIRCLE
5
121
100
AcDbEntity
8
0
100
AcDbCircle
10
67.199999999999989
20
53.100000000000009
30
0
40
2.6999999999999957
0
CIRCLE
5
122
100
AcDbEntity
8
0
100
AcDbCircle
10
50.399999999999991
20
36.299999999999997
30
0
40
2.6999999999999957
0
CIRCLE
5
123
100
AcDbEntity
8
0
100
AcDbCircle
10
50.399999999999991
20
47.5
30
0
40
2.6999999999999957
0
CIRCLE
5
124
100
AcDbEntity
8
0
100
AcDbCircle
10
56
20
30.699999999999999
30
0
40
2.6999999999999957
0
CIRCLE
5
125
100
AcDbEntity
8
0
100
AcDbCircle
10
44.799999999999997
20
19.499999999999996
30
0
40
2.7000000000000046
0
CIRCLE
5
126
100
AcDbEntity
8
0
100
AcDbCircle
10
22.399999999999999
20
19.499999999999996
30
0
40
2.7000000000000002
0
CIRCLE
5
127
100
AcDbEntity
8
0
100
AcDbCircle
10
11.199999999999999
20
30.699999999999999
30
0
40
2.7000000000000002
0
CIRCLE
5
128
100
AcDbEntity
8
0
100
AcDbCircle
10
33.599999999999994
20
47.5
30
0
40
2.7000000000000002
0
CIRCLE
5
129
100
AcDbEntity
8
0
100
AcDbCircle
10
50.399999999999991
20
19.499999999999996
30
0
40
2.6999999999999957
0
CIRCLE
5
130
100
AcDbEntity
8
0
100
AcDbCircle
10
11.199999999999999
20
13.899999999999997
30
0
40
2.7000000000000002
0
CIRCLE
5
131
100
AcDbEntity
8
0
100
AcDbCircle
10
5.5999999999999996
20
13.899999999999997
30
0
40
2.7000000000000002
0
CIRCLE
5
132
100
AcDbEntity
8
0
100
AcDbCircle
10
5.5999999999999996
20
47.5
30
0
40
2.7000000000000002
0
CIRCLE
5
133
100
AcDbEntity
8
0
100
AcDbCircle
10
5.5999999999999996
20
53.100000000000009
30
0
40
2.7000000000000002
0
CIRCLE
5
134
100
AcDbEntity
8
0
100
AcDbCircle
10
33.599999999999994
20
53.100000000000009
30
0
40
2.7000000000000002
0
CIRCLE
5
135
100
AcDbEntity
8
0
100
AcDbCircle
10
50.399999999999991
20
53.100000000000009
30
0
40
2.6999999999999957
0
CIRCLE
5
136
100
AcDbEntity
8
0
100
AcDbCircle
10
28
20
53.100000000000009
30
0
40
2.7000000000000002
0
CIRCLE
5
137
100
AcDbEntity
8
0
100
AcDbCircle
10
11.199999999999999
20
53.100000000000009
30
0
40
2.7000000000000002
0
CIRCLE
5
138
100
AcDbEntity
8
0
100
AcDbCircle
10
5.5999999999999996
20
30.699999999999999
30
0
40
2.7000000000000002
0
CIRCLE
5
139
100
AcDbEntity
8
0
100
AcDbCircle
10
16.799999999999997
20
13.899999999999997
30
0
40
2.7000000000000002
0
CIRCLE
5
140
100
AcDbEntity
8
0
100
AcDbCircle
10
33.599999999999994
20
13.899999999999997
30
0
40
2.7000000000000002
0
CIRCLE
5
141
100
AcDbEntity
8
0
100
AcDbCircle
10
11.199999999999999
20
47.5
30
0
40
2.7000000000000002
0
CIRCLE
5
142
100
AcDbEntity
8
0
100
AcDbCircle
10
22.399999999999999
20
47.5
30
0
40
2.7000000000000002
0
CIRCLE
5
143
100
AcDbEntity
8
0
100
AcDbCircle
10
11.199999999999999
20
25.099999999999998
30
0
40
2.7000000000000002
0
CIRCLE
5
144
100
AcDbEntity
8
0
100
AcDbCircle
10
28
20
19.499999999999996
30
0
40
2.7000000000000002
0
CIRCLE
5
145
100
AcDbEntity
8
0
100
AcDbCircle
10
50.399999999999991
20
13.899999999999997
30
0
40
2.6999999999999957
0
CIRCLE
5
146
100
AcDbEntity
8
0
100
AcDbCircle
10
56
20
36.299999999999997
30
0
40
2.6999999999999957
0
CIRCLE
5
147
100
AcDbEntity
8
0
100
AcDbCircle
10
44.799999999999997
20
47.5
30
0
40
2.7000000000000046
0
CIRCLE
5
148
100
AcDbEntity
8
0
100
AcDbCircle
10
50.399999999999991
20
30.699999999999999
30
0
40
2.6999999999999957
0
CIRCLE
5
149
100
AcDbEntity
8
0
100
AcDbCircle
10
67.199999999999989
20
47.5
30
0
40
2.6999999999999957
0
CIRCLE
5
150
100
AcDbEntity
8
0
100
AcDbCircle
10
67.199999999999989
20
36.299999999999997
30
0
40
2.6999999999999957
0
CIRCLE
5
151
100
AcDbEntity
8
0
100
AcDbCircle
10
67.199999999999989
20
25.099999999999998
30
0
40
2.6999999999999957
0
CIRCLE
5
152
100
AcDbEntity
8
0
100
AcDbCircle
10
67.199999999999989
20
13.899999999999997
30
0
40
2.6999999999999957
0
CIRCLE
5
153
100
AcDbEntity
8
0
100
AcDbCircle
10
95.199999999999989
20
47.5
30
0
40
2.6999999999999957
0
CIRCLE
5
154
100
AcDbEntity
8
0
100
AcDbCircle
10
117.59999999999998
20
47.5
30
0
40
2.6999999999999957
0
CIRCLE
5
155
100
AcDbEntity
8
0
100
AcDbCircle
10
134.39999999999998
20
41.899999999999991
30
0
40
2.6999999999999957
0
CIRCLE
5
156
100
AcDbEntity
8
0
100
AcDbCircle
10
134.39999999999998
20
19.499999999999996
30
0
40
2.6999999999999957
0
CIRCLE
5
157
100
AcDbEntity
8
0
100
AcDbCircle
10
112
20
13.899999999999997
30
0
40
2.6999999999999957
0
CIRCLE
5
158
100
AcDbEntity
8
0
100
AcDbCircle
10
89.599999999999994
20
13.899999999999997
30
0
40
2.6999999999999957
0
CIRCLE
5
159
100
AcDbEntity
8
0
100
AcDbCircle
10
83.999999999999986
20
41.899999999999991
30
0
40
2.6999999999999957
0
CIRCLE
5
160
100
AcDbEntity
8
0
100
AcDbCircle
10
89.599999999999994
20
30.699999999999999
30
0
40
2.6999999999999957
0
CIRCLE
5
161
100
AcDbEntity
8
0
100
AcDbCircle
10
95.199999999999989
20
53.100000000000009
30
0
40
2.6999999999999957
0
CIRCLE
5
162
100
AcDbEntity
8
0
100
AcDbCircle
10
117.59999999999998
20
53.100000000000009
30
0
40
2.6999999999999957
0
CIRCLE
5
163
100
AcDbEntity
8
0
100
AcDbCircle
10
128.79999999999998
20
36.299999999999997
30
0
40
2.6999999999999957
0
CIRCLE
5
164
100
AcDbEntity
8
0
100
AcDbCircle
10
123.19999999999999
20
19.499999999999996
30
0
40
2.6999999999999957
0
CIRCLE
5
165
100
AcDbEntity
8
0
100
AcDbCircle
10
117.59999999999998
20
19.499999999999996
30
0
40
2.6999999999999957
0
CIRCLE
5
166
100
AcDbEntity
8
0
100
AcDbCircle
10
117.59999999999998
20
36.299999999999997
30
0
40
2.6999999999999957
0
CIRCLE
5
167
100
AcDbEntity
8
0
100
AcDbCircle
10
100.79999999999998
20
36.299999999999997
30
0
40
2.6999999999999957
0
CIRCLE
5
168
100
AcDbEntity
8
0
100
AcDbCircle
10
112
20
30.699999999999999
30
0
40
2.6999999999999957
0
CIRCLE
5
169
100
AcDbEntity
8
0
100
AcDbCircle
10
95.199999999999989
20
30.699999999999999
30
0
40
2.6999999999999957
0
CIRCLE
5
170
100
AcDbEntity
8
0
100
AcDbCircle
10
106.39999999999999
20
36.299999999999997
30
0
40
2.6999999999999957
0
CIRCLE
5
171
100
AcDbEntity
8
0
100
AcDbCircle
10
123.19999999999999
20
36.299999999999997
30
0
40
2.6999999999999957
0
CIRCLE
5
172
100
AcDbEntity
8
0
100
AcDbCircle
10
95.199999999999989
20
19.499999999999996
30
0
40
2.6999999999999957
0
CIRCLE
5
173
100
AcDbEntity
8
0
100
AcDbCircle
10
128.79999999999998
20
25.099999999999998
30
0
40
2.6999999999999957
0
CIRCLE
5
174
100
AcDbEntity
8
0
100
AcDbCircle
10
128.79999999999998
20
53.100000000000009
30
0
40
2.6999999999999957
0
CIRCLE
5
175
100
AcDbEntity
8
0
100
AcDbCircle
10
106.39999999999999
20
53.100000000000009
30
0
40
2.6999999999999957
0
CIRCLE
5
176
100
AcDbEntity
8
0
100
AcDbCircle
10
89.599999999999994
20
41.899999999999991
30
0
40
2.6999999999999957
0
CIRCLE
5
177
100
AcDbEntity
8
0
100
AcDbCircle
10
89.599999999999994
20
19.499999999999996
30
0
40
2.6999999999999957
0
CIRCLE
5
178
100
AcDbEntity
8
0
100
AcDbCircle
10
83.999999999999986
20
30.699999999999999
30
0
40
2.6999999999999957
0
CIRCLE
5
179
100
AcDbEntity
8
0
100
AcDbCircle
10
100.79999999999998
20
13.899999999999997
30
0
40
2.6999999999999957
0
CIRCLE
5
180
100
AcDbEntity
8
0
100
AcDbCircle
10
123.19999999999999
20
13.899999999999997
30
0
40
2.6999999999999957
0
CIRCLE
5
181
100
AcDbEntity
8
0
100
AcDbCircle
10
134.39999999999998
20
30.699999999999999
30
0
40
2.6999999999999957
0
CIRCLE
5
182
100
AcDbEntity
8
0
100
AcDbCircle
10
128.79999999999998
20
47.5
30
0
40
2.6999999999999957
0
CIRCLE
5
183
100
AcDbEntity
8
0
100
AcDbCircle
10
106.39999999999999
20
47.5
30
0
40
2.6999999999999957
0
CIRCLE
5
184
100
AcDbEntity
8
0
100
AcDbCircle
10
83.999999999999986
20
47.5
30
0
40
2.6999999999999957
0
CIRCLE
5
185
100
AcDbEntity
8
0
100
AcDbCircle
10
72.799999999999997
20
19.499999999999996
30
0
40
2.6999999999999957
0
CIRCLE
5
186
100
AcDbEntity
8
0
100
AcDbCircle
10
72.799999999999997
20
30.699999999999999
30
0
40
2.6999999999999957
0
CIRCLE
5
187
100
AcDbEntity
8
0
100
AcDbCircle
10
72.799999999999997
20
41.899999999999991
30
0
40
2.6999999999999957
0
CIRCLE
5
188
100
AcDbEntity
8
0
100
AcDbCircle
10
72.799999999999997
20
53.100000000000009
30
0
40
2.6999999999999957
0
CIRCLE
5
189
100
AcDbEntity
8
0
100
AcDbCircle
10
50.399999999999991
20
41.899999999999991
30
0
40
2.6999999999999957
0
CIRCLE
5
190
100
AcDbEntity
8
0
100
AcDbCircle
10
56
20
47.5
30
0
40
2.6999999999999957
0
CIRCLE
5
191
100
AcDbEntity
8
0
100
AcDbCircle
10
56
20
25.099999999999998
30
0
40
2.6999999999999957
0
CIRCLE
5
192
100
AcDbEntity
8
0
100
AcDbCircle
10
39.199999999999996
20
19.499999999999996
30
0
40
2.7000000000000002
0
CIRCLE
5
193
100
AcDbEntity
8
0
100
AcDbCircle
10
16.799999999999997
20
19.499999999999996
30
0
40
2.7000000000000002
0
CIRCLE
5
194
100
AcDbEntity
8
0
100
AcDbCircle
10
11.199999999999999
20
36.299999999999997
30
0
40
2.7000000000000002
0
CIRCLE
5
195
100
AcDbEntity
8
0
100
AcDbCircle
10
28
20
47.5
30
0
40
2.7000000000000002
0
CIRCLE
5
196
100
AcDbEntity
8
0
100
AcDbCircle
10
44.799999999999997
20
13.899999999999997
30
0
40
2.7000000000000046
0
CIRCLE
5
197
100
AcDbEntity
8
0
100
AcDbCircle
10
28
20
13.899999999999997
30
0
40
2.7000000000000002
0
CIRCLE
5
198
100
AcDbEntity
8
0
100
AcDbCircle
10
5.5999999999999996
20
19.499999999999996
30
0
40
2.7000000000000002
0
CIRCLE
5
199
100
AcDbEntity
8
0
100
AcDbCircle
10
5.5999999999999996
20
36.299999999999997
30
0
40
2.7000000000000002
0
CIRCLE
5
200
100
AcDbEntity
8
0
100
AcDbCircle
10
16.799999999999997
20
53.100000000000009
30
0
40
2.7000000000000002
0
CIRCLE
5
201
100
AcDbEntity
8
0
100
AcDbCircle
10
39.199999999999996
20
53.100000000000009
30
0
40
2.7000000000000002
0
CIRCLE
5
202
100
AcDbEntity
8
0
100
AcDbCircle
10
44.799999999999997
20
53.100000000000009
30
0
40
2.7000000000000046
0
CIRCLE
5
203
100
AcDbEntity
8
0
100
AcDbCircle
10
22.399999999999999
20
53.100000000000009
30
0
40
2.7000000000000002
0
CIRCLE
5
204
100
AcDbEntity
8
0
100
AcDbCircle
10
5.5999999999999996
20
41.899999999999991
30
0
40
2.7000000000000002
0
CIRCLE
5
205
100
AcDbEntity
8
0
100
AcDbCircle
10
5.5999999999999996
20
25.099999999999998
30
0
40
2.7000000000000002
0
CIRCLE
5
206
100
AcDbEntity
8
0
100
AcDbCircle
10
22.399999999999999
20
13.899999999999997
30
0
40
2.7000000000000002
0
CIRCLE
5
207
100
AcDbEntity
8
0
100
AcDbCircle
10
39.199999999999996
20
13.899999999999997
30
0
40
2.7000000000000002
0
CIRCLE
5
208
100
AcDbEntity
8
0
100
AcDbCircle
10
16.799999999999997
20
47.5
30
0
40
2.7000000000000002
0
CIRCLE
5
209
100
AcDbEntity
8
0
100
AcDbCircle
10
11.199999999999999
20
41.899999999999991
30
0
40
2.7000000000000002
0
CIRCLE
5
210
100
AcDbEntity
8
0
100
AcDbCircle
10
11.199999999999999
20
19.499999999999996
30
0
40
2.7000000000000002
0
CIRCLE
5
211
100
AcDbEntity
8
0
100
AcDbCircle
10
33.599999999999994
20
19.499999999999996
30
0
40
2.7000000000000002
0
CIRCLE
5
212
100
AcDbEntity
8
0
100
AcDbCircle
10
56
20
19.499999999999996
30
0
40
2.6999999999999957
0
CIRCLE
5
213
100
AcDbEntity
8
0
100
AcDbCircle
10
56
20
41.899999999999991
30
0
40
2.6999999999999957
0
CIRCLE
5
214
100
AcDbEntity
8
0
100
AcDbCircle
10
39.199999999999996
20
47.5
30
0
40
2.7000000000000002
0
CIRCLE
5
215
100
AcDbEntity
8
0
100
AcDbCircle
10
50.399999999999991
20
25.099999999999998
30
0
40
2.6999999999999957
0
CIRCLE
5
216
100
AcDbEntity
8
0
100
AcDbCircle
10
72.799999999999997
20
47.5
30
0
40
2.6999999999999957
0
CIRCLE
5
217
100
AcDbEntity
8
0
100
AcDbCircle
10
72.799999999999997
20
36.299999999999997
30
0
40
2.6999999999999957
0
CIRCLE
5
218
100
AcDbEntity
8
0
100
AcDbCircle
10
72.799999999999997
20
25.099999999999998
30
0
40
2.6999999999999957
0
CIRCLE
5
219
100
AcDbEntity
8
0
100
AcDbCircle
10
67.199999999999989
20
19.499999999999996
30
0
40
2.6999999999999957
0
CIRCLE
5
220
100
AcDbEntity
8
0
100
AcDbCircle
10
100.79999999999998
20
47.5
30
0
40
2.6999999999999957
0
CIRCLE
5
221
100
AcDbEntity
8
0
100
AcDbCircle
10
123.19999999999999
20
47.5
30
0
40
2.6999999999999957
0
CIRCLE
5
222
100
AcDbEntity
8
0
100
AcDbCircle
10
134.39999999999998
20
36.299999999999997
30
0
40
2.6999999999999957
0
CIRCLE
5
223
100
AcDbEntity
8
0
100
AcDbCircle
10
128.79999999999998
20
13.899999999999997
30
0
40
2.6999999999999957
0
CIRCLE
5
224
100
AcDbEntity
8
0
100
AcDbCircle
10
106.39999999999999
20
13.899999999999997
30
0
40
2.6999999999999957
0
CIRCLE
5
225
100
AcDbEntity
8
0
100
AcDbCircle
10
83.999999999999986
20
25.099999999999998
30
0
40
2.6999999999999957
0
CIRCLE
5
226
100
AcDbEntity
8
0
100
AcDbCircle
10
83.999999999999986
20
19.499999999999996
30
0
40
2.6999999999999957
0
CIRCLE
5
227
100
AcDbEntity
8
0
100
AcDbCircle
10
89.599999999999994
20
36.299999999999997
30
0
40
2.6999999999999957
0
CIRCLE
5
228
100
AcDbEntity
8
0
100
AcDbCircle
10
100.79999999999998
20
53.100000000000009
30
0
40
2.6999999999999957
0
CIRCLE
5
229
100
AcDbEntity
8
0
100
AcDbCircle
10
123.19999999999999
20
53.100000000000009
30
0
40
2.6999999999999957
0
CIRCLE
5
230
100
AcDbEntity
8
0
100
AcDbCircle
10
128.79999999999998
20
30.699999999999999
30
0
40
2.6999999999999957
0
CIRCLE
5
231
100
AcDbEntity
8
0
100
AcDbCircle
10
106.39999999999999
20
19.499999999999996
30
0
40
2.6999999999999957
0
CIRCLE
5
232
100
AcDbEntity
8
0
100
AcDbCircle
10
112
20
19.499999999999996
30
0
40
2.6999999999999957
0
CIRCLE
5
233
100
AcDbEntity
8
0
100
AcDbCircle
10
112
20
36.299999999999997
30
0
40
2.6999999999999957
0
CIRCLE
5
234
100
AcDbEntity
8
0
100
AcDbCircle
10
100.79999999999998
20
30.699999999999999
30
0
40
2.6999999999999957
0
CIRCLE
5
235
100
AcDbEntity
8
0
100
AcDbCircle
10
117.59999999999998
20
30.699999999999999
30
0
40
2.6999999999999957
0
LWPOLYLINE
5
236
100
AcDbEntity
8
0
100
AcDbPolyline
90
4
70
1
43
0.0
10
12.199632603458195
20
1.9003629787632814
10
12.199632603458195
20
3.6996343789441077
10
7.8003606034582553
20
3.6996343789441077
10
7.8003606034582553
20
1.9003629787632814
0
CIRCLE
5
237
100
AcDbEntity
8
0
100
AcDbCircle
10
3.9999996200000005
20
63.000000999999997
30
0
40
2.0000010800000005
0
LWPOLYLINE
5
238
100
AcDbEntity
8
0
100
AcDbPolyline
90
4
70
1
43
0.0
10
32.199632603458198
20
1.9003629787632814
10
32.199632603458198
20
3.6996343789441077
10
27.800360603458255
20
3.6996343789441077
10
27.800360603458252
20
1.9003629787632814
0
LWPOLYLINE
5
239
100
AcDbEntity
8
0
100
AcDbPolyline
90
4
70
1
43
0.0
10
92.199632603458213
20
1.9003629787632814
10
92.199632603458213
20
3.6996343789441077
10
87.800360603458245
20
3.6996343789441077
10
87.800360603458273
20
1.9003629787632814
0
LWPOLYLINE
5
240
100
AcDbEntity
8
0
100
AcDbPolyline
90
4
70
1
43
0.0
10
72.199632603458198
20
1.9003629787632814
10
72.199632603458198
20
3.6996343789441077
10
67.800360603458245
20
3.6996343789441077
10
67.800360603458245
20
1.9003629787632814
0
LWPOLYLINE
5
241
100
AcDbEntity
8
0
100
AcDbPolyline
90
4
70
1
43
0.0
10
112.19963260345821
20
1.9003629787632814
10
112.19963260345821
20
3.6996343789441077
10
107.80036060345824
20
3.6996343789441077
10
107.80036060345827
20
1.9003629787632814
0
LWPOLYLINE
5
242
100
AcDbEntity
8
0
100
AcDbPolyline
90
4
70
1
43
0.0
10
132.19963260345818
20
65.099637021236717
10
127.80036060345824
20
65.099637021236717
10
127.80036060345824
20
63.300365621055896
10
132.19963260345818
20
63.300365621055896
0
LWPOLYLINE
5
243
100
AcDbEntity
8
0
100
AcDbPolyline
90
4
70
1
43
0.0
10
112.1996326034582
20
65.099637021236717
10
107.80036060345824
20
65.099637021236717
10
107.80036060345824
20
63.300365621055896
10
112.1996326034582
20
63.300365621055896
0
LWPOLYLINE
5
244
100
AcDbEntity
8
0
100
AcDbPolyline
90
4
70
1
43
0.0
10
52.199632603458198
20
65.099637021236717
10
47.800360603458252
20
65.099637021236717
10
47.800360603458252
20
63.300365621055896
10
52.199632603458198
20
63.300365621055896
0
LWPOLYLINE
5
245
100
AcDbEntity
8
0
100
AcDbPolyline
90
4
70
1
43
0.0
10
92.199632603458198
20
65.099637021236717
10
87.800360603458245
20
65.099637021236717
10
87.800360603458245
20
63.300365621055896
10
92.199632603458198
20
63.300365621055896
0
LWPOLYLINE
5
246
100
AcDbEntity
8
0
100
AcDbPolyline
90
4
70
1
43
0.0
10
132.19963260345821
20
1.9003629787632814
10
132.19963260345821
20
3.6996343789441077
10
127.80036060345824
20
3.6996343789441077
10
127.80036060345827
20
1.9003629787632814
0
LWPOLYLINE
5
247
100
AcDbEntity
8
0
100
AcDbPolyline
90
4
70
1
43
0.0
10
72.199632603458198
20
65.099637021236717
10
67.800360603458245
20
65.099637021236717
10
67.800360603458245
20
63.300365621055896
10
72.199632603458198
20
63.300365621055896
0
LWPOLYLINE
5
248
100
AcDbEntity
8
0
100
AcDbPolyline
90
4
70
1
43
0.0
10
52.199632603458198
20
1.9003629787632814
10
52.199632603458198
20
3.6996343789441077
10
47.800360603458252
20
3.6996343789441077
10
47.800360603458252
20
1.9003629787632814
0
CIRCLE
5
249
100
AcDbEntity
8
0
100
AcDbCircle
10
135.99999978
20
63.000000999999997
30
0
40
2.0000010799999934
0
LWPOLYLINE
5
250
100
AcDbEntity
8
0
100
AcDbPolyline
90
4
70
1
43
0.0
10
32.199632603458198
20
65.099637021236717
10
27.800360603458255
20
65.099637021236717
10
27.800360603458255
20
63.300365621055896
10
32.199632603458198
20
63.300365621055896
0
LWPOLYLINE
5
251
100
AcDbEntity
8
0
100
AcDbPolyline
90
4
70
1
43
0.0
10
12.199632603458195
20
65.099637021236717
10
7.8003606034582553
20
65.099637021236717
10
7.8003606034582553
20
63.300365621055896
10
12.199632603458195
20
63.300365621055896
0
LWPOLYLINE
5
252
100
AcDbEntity
8
0
100
AcDbPolyline
90
4
70
1
43
0.0
10
140
20
67
10
140
20
0
10
0
20
0
10
0
20
67
0
ENDSEC
0
SECTION
2
OBJECTS
0
DICTIONARY
5
C
100
AcDbDictionary
3
ACAD_GROUP
350
D
3
ACAD_MLINESTYLE
350
17
0
DICTIONARY
5
D
100
AcDbDictionary
0
DICTIONARY
5
1A
330
C
100
AcDbDictionary
0
DICTIONARY
5
17
100
AcDbDictionary
0
ENDSEC
0
EOF
